# Blender 5.1.0
# www.blender.org
mtllib Room_Well.mtl
o _brickwork_unglazed_walls
v 0.000000 0.000000 0.000000
v 0.000000 15.200000 0.000000
v 0.000000 0.000000 -2.400000
v 0.000000 15.200000 -2.400000
v 2.400000 0.000000 0.000000
v 2.400000 15.200000 0.000000
v 2.400000 0.000000 -2.400000
v 2.400000 15.200000 -2.400000
v 0.200000 0.200000 -0.200000
v 0.200000 15.200000 -0.200000
v 0.200000 0.200000 -2.200000
v 0.200000 15.200000 -2.200000
v 2.200000 0.200000 -0.200000
v 2.200000 15.200000 -0.200000
v 2.200000 0.200000 -2.200000
v 2.200000 15.200000 -2.200000
vn -1.0000 -0.0000 -0.0000
vn -0.0000 -0.0000 -1.0000
vn 1.0000 -0.0000 -0.0000
vn -0.0000 -0.0000 1.0000
vn -0.0000 -1.0000 -0.0000
vn -0.0000 1.0000 -0.0000
vt 0.625000 0.000000
vt 0.375000 0.250000
vt 0.375000 0.000000
vt 0.625000 0.250000
vt 0.375000 0.500000
vt 0.625000 0.500000
vt 0.375000 0.750000
vt 0.625000 0.750000
vt 0.375000 1.000000
vt 0.125000 0.750000
vt 0.125000 0.500000
vt 0.625000 1.000000
s 0
usemtl _brickwork_unglazed_walls
f 2/1/1 3/2/1 1/3/1
f 4/4/2 7/5/2 3/2/2
f 8/6/3 5/7/3 7/5/3
f 6/8/4 1/9/4 5/7/4
f 7/5/5 1/10/5 3/11/5
f 11/2/3 10/1/3 9/3/3
f 15/5/4 12/4/4 11/2/4
f 13/7/1 16/6/1 15/5/1
f 9/9/2 14/8/2 13/7/2
f 9/10/6 15/5/6 11/11/6
f 6/8/6 10/1/6 2/1/6
f 2/1/6 12/4/6 4/4/6
f 4/4/6 16/6/6 8/6/6
f 8/6/6 14/8/6 6/8/6
f 2/1/1 4/4/1 3/2/1
f 4/4/2 8/6/2 7/5/2
f 8/6/3 6/8/3 5/7/3
f 6/8/4 2/12/4 1/9/4
f 7/5/5 5/7/5 1/10/5
f 11/2/3 12/4/3 10/1/3
f 15/5/4 16/6/4 12/4/4
f 13/7/1 14/8/1 16/6/1
f 9/9/2 10/12/2 14/8/2
f 9/10/6 13/7/6 15/5/6
f 6/8/6 14/8/6 10/1/6
f 2/1/6 10/1/6 12/4/6
f 4/4/6 12/4/6 16/6/6
f 8/6/6 16/6/6 14/8/6
