# Blender 5.1.0
# www.blender.org
mtllib simpleLshapeRoom4.mtl
o RoomL_wall
v -3.179693 -1.695206 2.179693
v 3.179693 -1.695206 2.179693
v -3.179693 -1.695206 -2.179693
v -3.179693 1.695206 2.179693
v -3.179693 -1.695206 -0.206488
v 3.179693 -1.695206 -0.206488
v -0.793513 -1.695206 2.179693
v -0.793513 -1.695206 -2.179693
v 1.206487 -1.695206 -1.206488
v 3.179693 1.695206 2.179693
v -3.179693 1.695206 -2.179693
v -3.179693 1.695206 -0.206488
v 3.179693 1.695206 -0.206488
v -0.793513 1.695206 2.179693
v -0.793513 1.695206 -2.179693
v 1.206487 1.695206 -1.206488
v -2.993512 -1.500000 1.993512
v 3.006487 -1.500000 1.993512
v -2.993512 -1.500000 -2.006488
v -2.993512 1.500000 1.993512
v -2.993512 -1.500000 -0.006488
v 3.006487 -1.500000 -0.006488
v -0.993513 -1.500000 1.993512
v -0.993513 -1.500000 -2.006488
v 1.006487 -1.500000 -1.006488
v 3.006487 1.500000 1.993512
v -2.993512 1.500000 -2.006488
v -2.993512 1.500000 -0.006488
v 3.006487 1.500000 -0.006488
v -0.993513 1.500000 1.993512
v -0.993513 1.500000 -2.006488
v 1.006487 1.500000 -1.006488
vn -0.0000 1.0000 -0.0000
vn -0.0000 -1.0000 -0.0000
vn -0.0000 -0.0000 -1.0000
vn -0.0000 -0.0000 1.0000
vn -1.0000 -0.0000 -0.0000
vn 0.4376 -0.0000 -0.8992
vn 0.4521 -0.0000 -0.8920
vn 1.0000 -0.0000 -0.0000
vn -0.4472 -0.0000 0.8944
vt 1.000000 0.000000
vt 1.000000 0.500000
vt 0.000000 0.500000
vt 0.000000 0.000000
vt 0.000000 1.000000
vt 1.000000 1.000000
s 0
f 10/1/1 16/2/1 14/1/1
f 9/2/2 2/1/2 7/1/2
f 5/3/2 7/1/2 1/4/2
f 3/5/2 9/2/2 5/3/2
f 14/1/1 12/3/1 4/4/1
f 16/2/1 11/5/1 12/3/1
f 3/5/3 15/6/3 8/6/3
f 2/1/4 14/1/4 7/1/4
f 5/3/5 11/5/5 3/5/5
f 8/6/6 16/2/6 9/2/6
f 1/4/5 12/3/5 5/3/5
f 9/2/7 13/2/7 6/2/7
f 7/1/4 4/4/4 1/4/4
f 6/2/8 10/1/8 2/1/8
f 32/2/2 26/1/2 30/1/2
f 18/1/1 25/2/1 23/1/1
f 23/1/1 21/3/1 17/4/1
f 25/2/1 19/5/1 21/3/1
f 28/3/2 30/1/2 20/4/2
f 27/5/2 32/2/2 28/3/2
f 31/6/4 19/5/4 24/6/4
f 30/1/3 18/1/3 23/1/3
f 27/5/8 21/3/8 19/5/8
f 32/2/9 24/6/9 25/2/9
f 28/3/8 17/4/8 21/3/8
f 29/2/9 25/2/9 22/2/9
f 20/4/3 23/1/3 17/4/3
f 26/1/5 22/2/5 18/1/5
f 10/1/1 13/2/1 16/2/1
f 9/2/2 6/2/2 2/1/2
f 5/3/2 9/2/2 7/1/2
f 3/5/2 8/6/2 9/2/2
f 14/1/1 16/2/1 12/3/1
f 16/2/1 15/6/1 11/5/1
f 3/5/3 11/5/3 15/6/3
f 2/1/4 10/1/4 14/1/4
f 5/3/5 12/3/5 11/5/5
f 8/6/6 15/6/6 16/2/6
f 1/4/5 4/4/5 12/3/5
f 9/2/7 16/2/7 13/2/7
f 7/1/4 14/1/4 4/4/4
f 6/2/8 13/2/8 10/1/8
f 32/2/2 29/2/2 26/1/2
f 18/1/1 22/2/1 25/2/1
f 23/1/1 25/2/1 21/3/1
f 25/2/1 24/6/1 19/5/1
f 28/3/2 32/2/2 30/1/2
f 27/5/2 31/6/2 32/2/2
f 31/6/4 27/5/4 19/5/4
f 30/1/3 26/1/3 18/1/3
f 27/5/8 28/3/8 21/3/8
f 32/2/9 31/6/9 24/6/9
f 28/3/8 20/4/8 17/4/8
f 29/2/9 32/2/9 25/2/9
f 20/4/3 30/1/3 23/1/3
f 26/1/5 29/2/5 22/2/5
