# Blender 5.1.0
# www.blender.org
mtllib Untitled2.mtl
o wall_room
v 0.199984 0.199984 -0.199984
v 0.000000 0.000000 0.000000
v 0.000000 0.000000 0.000000
v 0.199984 3.600047 -0.199984
v 0.000000 3.800032 0.000000
v 0.000000 3.800032 0.000000
v 0.199984 0.199984 -4.800047
v 0.000000 0.000000 -5.000031
v 0.000000 0.000000 -5.000031
v 0.199984 3.600047 -4.800047
v 0.000000 3.800032 -5.000031
v 0.000000 3.800032 -5.000031
v 4.800047 0.199984 -0.199984
v 5.000031 0.000000 0.000000
v 5.000031 0.000000 0.000000
v 4.800047 3.600047 -0.199984
v 5.000031 3.800032 0.000000
v 5.000031 3.800032 0.000000
v 4.800047 0.199984 -4.800047
v 5.000031 0.000000 -5.000031
v 5.000031 0.000000 -5.000031
v 4.800047 3.600047 -4.800047
v 5.000031 3.800032 -5.000031
v 5.000031 3.800032 -5.000031
v 0.194211 0.194211 -0.194211
v 0.005774 0.005774 -0.005774
v -0.005774 -0.005774 0.005774
v 0.194211 3.605821 -0.194211
v 0.005774 3.794258 -0.005774
v -0.005774 3.805805 0.005774
v 0.194211 0.194211 -4.805820
v 0.005774 0.005774 -4.994258
v -0.005774 -0.005774 -5.005805
v 0.194211 3.605821 -4.805820
v 0.005774 3.794258 -4.994258
v -0.005774 3.805805 -5.005805
v 4.805820 0.194211 -0.194211
v 4.994258 0.005774 -0.005774
v 5.005805 -0.005774 0.005774
v 4.805820 3.605821 -0.194211
v 4.994258 3.794258 -0.005774
v 5.005805 3.805805 0.005774
v 4.805820 0.194211 -4.805820
v 4.994258 0.005774 -4.994258
v 5.005805 -0.005774 -5.005805
v 4.805820 3.605821 -4.805820
v 4.994258 3.794258 -4.994258
v 5.005805 3.805805 -5.005805
vn 1.0000 -0.0000 -0.0000
vn -1.0000 -0.0000 -0.0000
vn -0.0000 -0.0000 1.0000
vn -0.0000 -0.0000 -1.0000
vn -0.0000 1.0000 -0.0000
vn -0.0000 -1.0000 -0.0000
vt 0.625000 0.000000
vt 0.375000 0.250000
vt 0.625000 0.250000
vt 0.375000 0.500000
vt 0.625000 0.500000
vt 0.375000 0.750000
vt 0.625000 0.750000
vt 0.375000 1.000000
vt 0.625000 1.000000
vt 0.125000 0.750000
vt 0.875000 0.500000
vt 0.875000 0.750000
vt 0.375000 0.000000
vt 0.125000 0.500000
s 0
usemtl wall_room_material
f 4/1/1 7/2/1 10/3/1
f 8/2/2 5/1/2 11/3/2
f 6/1/1 9/2/1 12/3/1
f 10/3/3 19/4/3 22/5/3
f 20/4/4 11/3/4 23/5/4
f 12/3/3 21/4/3 24/5/3
f 22/5/2 13/6/2 16/7/2
f 14/6/1 23/5/1 17/7/1
f 24/5/2 15/6/2 18/7/2
f 16/7/4 1/8/4 4/9/4
f 2/8/3 17/7/3 5/9/3
f 18/7/4 3/8/4 6/9/4
f 19/4/5 1/10/5 13/6/5
f 2/10/6 20/4/6 14/6/6
f 21/4/5 3/10/5 15/6/5
f 10/11/6 16/7/6 4/12/6
f 17/7/5 11/11/5 5/12/5
f 12/11/6 18/7/6 6/12/6
f 31/2/2 28/1/2 34/3/2
f 29/1/1 32/2/1 35/3/1
f 33/2/2 30/1/2 36/3/2
f 43/4/4 34/3/4 46/5/4
f 35/3/3 44/4/3 47/5/3
f 45/4/4 36/3/4 48/5/4
f 37/6/1 46/5/1 40/7/1
f 47/5/2 38/6/2 41/7/2
f 39/6/1 48/5/1 42/7/1
f 25/8/3 40/7/3 28/9/3
f 41/7/4 26/8/4 29/9/4
f 27/8/3 42/7/3 30/9/3
f 25/10/6 43/4/6 37/6/6
f 44/4/5 26/10/5 38/6/5
f 27/10/6 45/4/6 39/6/6
f 40/7/5 34/11/5 28/12/5
f 35/11/6 41/7/6 29/12/6
f 42/7/5 36/11/5 30/12/5
f 4/1/1 1/13/1 7/2/1
f 8/2/2 2/13/2 5/1/2
f 6/1/1 3/13/1 9/2/1
f 10/3/3 7/2/3 19/4/3
f 20/4/4 8/2/4 11/3/4
f 12/3/3 9/2/3 21/4/3
f 22/5/2 19/4/2 13/6/2
f 14/6/1 20/4/1 23/5/1
f 24/5/2 21/4/2 15/6/2
f 16/7/4 13/6/4 1/8/4
f 2/8/3 14/6/3 17/7/3
f 18/7/4 15/6/4 3/8/4
f 19/4/5 7/14/5 1/10/5
f 2/10/6 8/14/6 20/4/6
f 21/4/5 9/14/5 3/10/5
f 10/11/6 22/5/6 16/7/6
f 17/7/5 23/5/5 11/11/5
f 12/11/6 24/5/6 18/7/6
f 31/2/2 25/13/2 28/1/2
f 29/1/1 26/13/1 32/2/1
f 33/2/2 27/13/2 30/1/2
f 43/4/4 31/2/4 34/3/4
f 35/3/3 32/2/3 44/4/3
f 45/4/4 33/2/4 36/3/4
f 37/6/1 43/4/1 46/5/1
f 47/5/2 44/4/2 38/6/2
f 39/6/1 45/4/1 48/5/1
f 25/8/3 37/6/3 40/7/3
f 41/7/4 38/6/4 26/8/4
f 27/8/3 39/6/3 42/7/3
f 25/10/6 31/14/6 43/4/6
f 44/4/5 32/14/5 26/10/5
f 27/10/6 33/14/6 45/4/6
f 40/7/5 46/5/5 34/11/5
f 35/11/6 47/5/6 41/7/6
f 42/7/5 48/5/5 36/11/5
o metal_box
v 2.000000 0.200000 -2.000000
v 2.000000 1.200000 -2.000000
v 2.000000 0.200000 -3.000000
v 2.000000 1.200000 -3.000000
v 3.000000 0.200000 -2.000000
v 3.000000 1.200000 -2.000000
v 3.000000 0.200000 -3.000000
v 3.000000 1.200000 -3.000000
v 2.005774 0.205774 -2.005774
v 2.005774 1.194227 -2.005774
v 2.005774 0.205774 -2.994226
v 2.005774 1.194227 -2.994226
v 2.994226 0.205774 -2.005774
v 2.994226 1.194227 -2.005774
v 2.994226 0.205774 -2.994226
v 2.994226 1.194227 -2.994226
vn -1.0000 -0.0000 -0.0000
vn -0.0000 -0.0000 -1.0000
vn 1.0000 -0.0000 -0.0000
vn -0.0000 -0.0000 1.0000
vn -0.0000 -1.0000 -0.0000
vn -0.0000 1.0000 -0.0000
vt 0.625000 0.000000
vt 0.375000 0.250000
vt 0.375000 0.000000
vt 0.625000 0.250000
vt 0.375000 0.500000
vt 0.625000 0.500000
vt 0.375000 0.750000
vt 0.625000 0.750000
vt 0.375000 1.000000
vt 0.125000 0.750000
vt 0.125000 0.500000
vt 0.875000 0.500000
vt 0.625000 1.000000
vt 0.875000 0.750000
s 0
usemtl metal_box_material
f 50/15/7 51/16/7 49/17/7
f 52/18/8 55/19/8 51/16/8
f 56/20/9 53/21/9 55/19/9
f 54/22/10 49/23/10 53/21/10
f 55/19/11 49/24/11 51/25/11
f 52/26/12 54/22/12 56/20/12
f 59/16/9 58/15/9 57/17/9
f 63/19/10 60/18/10 59/16/10
f 61/21/7 64/20/7 63/19/7
f 57/23/8 62/22/8 61/21/8
f 57/24/12 63/19/12 59/25/12
f 62/22/11 60/26/11 64/20/11
f 50/15/7 52/18/7 51/16/7
f 52/18/8 56/20/8 55/19/8
f 56/20/9 54/22/9 53/21/9
f 54/22/10 50/27/10 49/23/10
f 55/19/11 53/21/11 49/24/11
f 52/26/12 50/28/12 54/22/12
f 59/16/9 60/18/9 58/15/9
f 63/19/10 64/20/10 60/18/10
f 61/21/7 62/22/7 64/20/7
f 57/23/8 58/27/8 62/22/8
f 57/24/12 61/21/12 63/19/12
f 62/22/11 58/28/11 60/26/11
